<?xml version="1.0" standalone="no"?>
<!DOCTYPE svg PUBLIC "-//W3C//DTD SVG 20010904//EN"
 "http://www.w3.org/TR/2001/REC-SVG-20010904/DTD/svg10.dtd">
<svg version="1.0" xmlns="http://www.w3.org/2000/svg"
 width="700.000000pt" height="700.000000pt" viewBox="0 0 700.000000 700.000000"
 preserveAspectRatio="xMidYMid meet">
<metadata>
Created by potrace 1.11, written by Peter Selinger 2001-2013
</metadata>
<g transform="translate(0.000000,700.000000) scale(0.100000,-0.100000)"
fill="#000000" stroke="none">
<path d="M3248 6965 c-2 -2 -41 -6 -88 -10 -71 -5 -294 -35 -365 -49 -571
-110 -1156 -399 -1605 -791 -68 -59 -318 -311 -372 -375 -330 -390 -575 -858
-698 -1333 -32 -124 -31 -123 -54 -237 -18 -92 -24 -131 -32 -195 -3 -27 -7
-61 -10 -75 -25 -161 -25 -685 1 -815 3 -11 7 -42 10 -70 2 -27 7 -61 10 -75
3 -14 7 -38 10 -55 2 -16 9 -52 14 -80 93 -457 270 -871 540 -1265 35 -52 67
-97 70 -100 4 -3 26 -32 51 -64 68 -90 193 -230 294 -331 330 -328 707 -579
1144 -762 17 -7 -8 44 -83 167 -30 50 -55 95 -55 100 0 6 -4 10 -10 10 -5 0
-10 4 -10 9 0 5 -181 316 -402 692 -220 376 -410 700 -421 719 -10 19 -23 40
-27 45 -4 6 -17 27 -29 48 -40 70 -58 102 -141 242 -45 77 -93 160 -107 185
-14 25 -35 61 -48 80 -20 31 -374 634 -423 721 -10 19 -41 70 -67 114 -46 76
-48 83 -47 150 2 135 19 321 37 425 1 8 6 35 10 60 26 164 120 499 170 607 8
17 15 34 15 38 0 30 168 359 251 491 55 87 192 280 208 294 4 3 26 30 51 60
71 88 163 183 324 335 12 11 44 38 71 59 28 22 57 47 66 55 9 9 42 34 73 56
31 22 77 55 101 72 238 177 725 396 1030 464 28 6 57 12 65 14 116 29 299 57
460 71 96 9 408 9 491 0 35 -4 87 -9 114 -12 159 -16 440 -77 615 -134 137
-44 311 -116 459 -192 l155 -78 60 47 c34 26 63 50 66 53 3 3 29 23 58 45 28
21 52 42 52 46 0 16 -238 146 -399 218 -178 80 -480 184 -601 207 -14 3 -33 7
-42 10 -19 6 -18 5 -158 32 -58 11 -127 23 -155 26 -27 4 -68 9 -90 12 -22 2
-67 7 -100 10 -68 6 -502 14 -507 9z"/>
<path d="M5618 6217 c-35 -26 -70 -53 -78 -60 -8 -7 -103 -80 -210 -164 -169
-131 -515 -415 -613 -502 -18 -16 -57 -50 -87 -76 -30 -27 -97 -87 -149 -134
-52 -47 -106 -96 -120 -109 -109 -99 -422 -417 -521 -531 -234 -270 -308 -386
-535 -846 -195 -394 -238 -475 -357 -665 -242 -391 -288 -469 -383 -660 -299
-600 -317 -1047 -55 -1400 l50 -67 -22 -94 c-29 -129 -32 -420 -5 -519 52
-187 152 -293 293 -307 37 -4 46 -1 78 31 50 50 49 98 -3 237 -21 57 -45 132
-51 166 -11 54 -10 83 2 179 1 6 38 26 82 44 181 73 383 190 511 293 123 100
260 251 332 367 113 182 164 356 166 565 3 282 -55 422 -243 583 -162 139
-223 196 -263 249 l-41 55 50 47 c28 25 80 71 115 101 65 55 410 397 485 480
239 265 502 604 727 935 112 167 307 471 307 481 0 3 13 24 29 47 16 23 38 59
50 80 51 89 120 209 131 227 5 8 34 61 64 117 58 105 88 162 136 248 56 102
110 205 215 410 59 116 112 216 117 223 12 14 12 14 -74 16 -66 2 -69 1 -130
-47z"/>
<path d="M6900 4544 c-36 -7 -83 -15 -105 -18 -63 -10 -429 -73 -545 -94 -58
-11 -123 -23 -145 -26 -22 -4 -47 -8 -55 -11 -8 -2 -33 -6 -55 -10 -22 -3 -47
-7 -55 -10 -8 -2 -31 -6 -52 -9 -20 -3 -113 -19 -208 -36 -95 -17 -188 -33
-208 -36 -21 -2 -59 -9 -87 -14 -57 -10 -86 -15 -265 -40 -41 -5 -92 -12 -112
-14 -49 -6 -54 -10 -68 -54 -20 -61 -90 -192 -149 -277 -104 -152 -216 -274
-489 -534 -89 -85 -161 -156 -158 -158 2 -2 27 5 55 17 72 28 400 137 616 205
318 99 817 264 910 301 452 179 729 328 975 528 81 66 220 203 270 266 35 44
36 43 -70 24z"/>
<path d="M1728 4535 c-2 -2 -32 -6 -68 -10 -36 -3 -73 -8 -82 -11 -9 -3 -25
-7 -35 -9 -85 -20 -116 -30 -178 -56 -196 -81 -315 -176 -401 -317 -98 -163
-139 -426 -94 -601 51 -197 188 -343 417 -444 69 -31 201 -72 259 -81 20 -4
39 -8 43 -10 3 -2 29 -7 56 -10 28 -4 68 -9 90 -12 196 -25 556 -15 750 21 11
2 23 4 27 4 19 2 173 241 220 341 57 124 86 258 82 386 -3 84 -32 219 -59 270
-8 16 -15 32 -15 36 0 24 -109 186 -158 235 -164 167 -413 260 -714 267 -75 2
-138 2 -140 1z m183 -390 c180 -14 354 -96 423 -200 40 -60 51 -103 51 -210 0
-64 -5 -89 -24 -126 -92 -181 -342 -262 -696 -225 -33 4 -67 8 -75 11 -8 2
-28 7 -45 10 -62 12 -73 15 -141 41 -38 14 -77 28 -86 31 -39 12 -88 186 -83
294 10 204 200 354 475 376 36 3 66 7 68 8 2 2 15 2 30 0 15 -2 61 -6 103 -10z"/>
<path d="M6590 3711 c-45 -50 -214 -231 -265 -285 -22 -23 -87 -93 -145 -156
-58 -62 -118 -128 -135 -145 -16 -18 -55 -59 -85 -92 -150 -161 -288 -309
-315 -338 -35 -37 -230 -247 -268 -289 -15 -16 -73 -78 -129 -139 -111 -119
-117 -125 -277 -296 -58 -63 -113 -122 -122 -132 -8 -10 -69 -75 -135 -145
-129 -138 -213 -229 -264 -284 -49 -53 -232 -250 -260 -280 -52 -56 -248 -266
-274 -295 -15 -16 -76 -81 -134 -144 -59 -63 -136 -146 -172 -185 -36 -38 -90
-95 -120 -127 l-55 -56 -69 3 -68 4 7 -28 c4 -15 7 -34 7 -42 0 -8 2 -26 4
-40 5 -24 8 -22 63 39 l57 63 99 3 c106 4 227 12 285 20 19 3 54 7 77 10 264
32 599 128 878 253 673 300 1216 827 1542 1492 132 270 248 628 279 855 3 28
8 53 10 56 2 4 6 28 9 55 3 27 8 60 10 74 22 136 26 610 5 610 -3 0 -21 -17
-40 -39z"/>
</g>
</svg>
